<svg width="48" height="50" viewBox="0 0 48 50" fill="none" xmlns="http://www.w3.org/2000/svg">
<g clip-path="url(#clip0_1_137)">
<path d="M47.8612 5.55765V44.4448C47.83 44.512 47.784 44.5766 47.769 44.6475C47.1678 47.4643 44.972 49.2788 42.1525 49.2788C30.0257 49.2788 17.8988 49.2813 5.77072 49.2788C2.63631 49.2788 0.156669 46.7522 0.156669 43.5654C0.154179 31.1885 0.14671 18.8127 0.162893 6.43701C0.165382 4.04981 1.30189 2.32402 3.38942 1.26473C3.86493 1.02271 4.39895 0.89854 4.90558 0.719879C17.6399 0.719879 30.3742 0.719879 43.1085 0.719879C43.1907 0.754091 43.2703 0.798439 43.3562 0.818713C45.4388 1.31161 46.8504 2.57617 47.5773 4.6238C47.6856 4.92917 47.7666 5.24594 47.8612 5.55765ZM2.94751 14.9633V15.4385C2.94751 24.7313 2.94751 34.0242 2.94751 43.3171C2.94751 45.2519 4.12011 46.4367 6.03462 46.4367C18.0208 46.4367 30.007 46.4367 41.9932 46.4367C43.9014 46.4367 45.0653 45.2481 45.0653 43.3019C45.0653 34.0242 45.0653 24.7478 45.0653 15.4701V14.9633H2.94751ZM2.95747 12.0718H45.0317C45.0479 12.011 45.0616 11.9806 45.0628 11.9514C45.0653 10.2294 45.0678 8.50618 45.0678 6.7842C45.0678 4.71503 43.9338 3.56451 41.8936 3.56451C29.9696 3.56451 18.0469 3.56451 6.123 3.56451C5.99852 3.56451 5.87404 3.56197 5.7508 3.56578C4.25455 3.61012 3.0334 4.69856 2.97614 6.21527C2.9027 8.15393 2.95871 10.0977 2.95871 12.0718H2.95747Z" fill="#E6001E"/>
<path d="M28.3068 37.9167H23.289C23.3413 38.4046 23.4359 38.8823 23.4372 39.3587C23.4422 41.6965 21.5563 43.5883 19.2497 43.5883C16.9393 43.5883 15.0771 41.7003 15.0584 39.3574C15.051 38.5097 15.2887 37.7482 15.7007 37.0209C15.8016 36.8435 15.8526 36.5774 15.8078 36.381C14.609 31.2468 13.3916 26.1163 12.1854 20.9833C12.1244 20.7223 12.0224 20.626 11.751 20.6298C10.5087 20.645 9.26761 20.6386 8.0253 20.6348C7.14896 20.6323 6.49295 20.0013 6.51162 19.1903C6.53029 18.3857 7.16638 17.7965 8.02654 17.7953C9.71823 17.7927 11.4112 17.7927 13.1028 17.7953C13.9207 17.7965 14.3987 18.1779 14.5966 18.999C14.8929 20.2218 15.1792 21.447 15.4841 22.7306C15.6621 22.7306 15.8439 22.7306 16.0256 22.7306C21.6608 22.7306 27.2961 22.7268 32.9313 22.7331C35.2416 22.7357 37.1138 24.2537 37.654 26.5332C37.8594 27.3998 37.7997 28.2539 37.5345 29.1003C36.835 31.3367 36.1441 33.5769 35.4321 35.8096C35.335 36.1137 35.3524 36.305 35.5727 36.5597C36.754 37.9319 36.9134 39.9365 36.0009 41.4988C35.1059 43.032 33.3246 43.8683 31.674 43.53C29.823 43.1511 28.44 41.7332 28.2384 39.9023C28.1674 39.2573 28.2807 38.5921 28.3093 37.9193L28.3068 37.9167ZM16.2099 25.5803C16.1962 25.6779 16.1825 25.7108 16.1899 25.74C16.8995 28.7417 17.614 31.7435 18.3161 34.7465C18.3758 35.0037 18.4966 35.0658 18.7343 35.0607C19.4015 35.048 20.0687 35.0556 20.7372 35.0556C24.5874 35.0556 28.4363 35.0556 32.2865 35.0556C32.513 35.0556 32.7147 35.0987 32.8167 34.7655C33.4852 32.5696 34.1922 30.3851 34.8632 28.1892C35.1383 27.2883 34.7885 26.3114 33.9943 25.9047C33.5848 25.6956 33.0781 25.5942 32.6138 25.593C27.3048 25.5727 21.9969 25.579 16.6879 25.579H16.2099V25.5803ZM17.8567 39.3194C17.8555 40.0721 18.5065 40.7411 19.2459 40.7436C19.9841 40.7462 20.6438 40.0771 20.6451 39.3245C20.6476 38.5731 19.9891 37.9015 19.2509 37.9003C18.5103 37.899 17.858 38.5617 17.8567 39.3181V39.3194ZM30.9944 39.3283C30.9981 40.0835 31.6541 40.7474 32.3923 40.7436C33.1317 40.7398 33.7877 40.0657 33.7827 39.3156C33.7777 38.563 33.1167 37.8952 32.3798 37.9003C31.6367 37.9053 30.9906 38.5718 30.9944 39.3283Z" fill="#E6001E"/>
<path d="M29.5491 9.25377C25.8247 9.25377 22.1003 9.25504 18.3758 9.2525C17.6177 9.2525 17.0289 8.7482 16.9343 8.04369C16.8397 7.33159 17.2406 6.6841 17.9239 6.47503C18.0833 6.42561 18.2588 6.41421 18.4268 6.41421C25.8757 6.41167 33.3246 6.41167 40.7735 6.41294C41.6511 6.41294 42.2598 6.9882 42.2685 7.81055C42.2772 8.6595 41.6673 9.2525 40.7698 9.2525C37.0304 9.25504 33.2898 9.2525 29.5504 9.2525L29.5491 9.25377Z" fill="#E6001E"/>
<path d="M7.14401 9.25376C6.35481 9.25376 5.73863 8.61895 5.74734 7.81054C5.75606 7.02874 6.36975 6.41293 7.14028 6.41293C7.93073 6.41293 8.5469 7.04775 8.53819 7.85489C8.52947 8.63669 7.91454 9.25376 7.14401 9.25376Z" fill="#E6001E"/>
<path d="M12.6946 9.25376C11.9116 9.23728 11.3128 8.5822 11.3377 7.76999C11.3626 6.99706 11.995 6.39646 12.7705 6.41293C13.536 6.42813 14.1348 7.06168 14.1273 7.84855C14.1211 8.64935 13.4875 9.27023 12.6933 9.25376H12.6946Z" fill="#E6001E"/>
</g>
<defs>
<clipPath id="clip0_1_137">
<rect width="47.7082" height="48.5602" fill="white" transform="translate(0.153198 0.719879)"/>
</clipPath>
</defs>
</svg>
