<svg width="39" height="42" viewBox="0 0 39 42" fill="none" xmlns="http://www.w3.org/2000/svg">
<path d="M2.67281 0.159668C13.9895 0.159668 25.3063 0.159668 36.623 0.159668C36.9226 0.286932 37.2411 0.381042 37.5196 0.546806C38.5512 1.15853 38.9488 2.10927 38.9478 3.29528C38.9393 11.5514 38.9435 19.8075 38.9435 28.0636C38.9435 28.1566 38.9435 28.2508 38.9404 28.3438C38.8697 30.0624 37.6883 31.2153 35.9923 31.2163C33.4661 31.2185 30.9409 31.2206 28.4147 31.212C28.1342 31.212 27.9285 31.2634 27.8641 31.5061C28.0846 31.7361 28.2797 31.9403 28.4991 32.1692C28.6478 32.0077 28.7902 31.8323 28.9537 31.6772C29.3841 31.2687 29.9093 31.2548 30.327 31.6751C31.9609 33.3188 33.6021 34.9572 35.2033 36.6331C36.2032 37.679 36.1304 39.3259 35.1136 40.3483C34.1105 41.3568 32.4967 41.4284 31.4778 40.4296C29.8134 38.7987 28.19 37.1239 26.5594 35.4577C26.1628 35.0524 26.1807 34.5177 26.5699 34.0963C26.7302 33.9231 26.9222 33.7776 27.2028 33.5274C27.0171 33.4033 26.8885 33.3306 26.7745 33.2397C26.6638 33.152 26.5678 33.0451 26.456 32.9392C26.3495 33.0151 26.2619 33.0718 26.1807 33.136C24.4952 34.4578 22.5965 35.2396 20.4669 35.3914C16.7752 35.6545 13.7301 34.3273 11.3241 31.489C11.1501 31.2837 10.9824 31.212 10.725 31.212C8.23888 31.2206 5.75277 31.2259 3.26666 31.2078C2.88166 31.2046 2.46924 31.1415 2.118 30.9917C0.927153 30.4816 0.355466 29.5266 0.355466 28.2251C0.353356 19.862 0.354411 11.499 0.355466 3.13593C0.355466 3.02899 0.361785 2.92204 0.372333 2.81617C0.491523 1.57882 1.13811 0.753209 2.27622 0.311529C2.40912 0.260196 2.54202 0.209932 2.67493 0.159668H2.67281ZM37.028 10.9161H2.26673V11.3354C2.26673 16.9382 2.26673 22.541 2.26673 28.1438C2.26673 28.9598 2.60426 29.2945 3.42804 29.2945C5.44056 29.2956 7.45414 29.2945 9.46666 29.2945C9.59217 29.2945 9.71769 29.2828 9.89489 29.2742C8.82745 26.8615 8.55848 24.4082 9.20611 21.8769C9.85902 19.3262 11.244 17.2718 13.3546 15.7425C16.9429 13.1438 21.7337 12.9288 25.3527 15.4677C30.287 18.9305 31.3259 23.6864 29.3408 29.2945C29.4442 29.2945 29.5739 29.2945 29.7037 29.2945C31.7426 29.2945 33.7825 29.2945 35.8214 29.2945C36.7158 29.2945 37.027 28.978 37.027 28.0668C37.027 22.5046 37.027 16.9414 37.027 11.3792V10.9161H37.028ZM19.5672 33.5071C24.4224 33.5135 28.3883 29.5159 28.4052 24.5986C28.4221 19.6727 24.4509 15.626 19.5904 15.6174C14.7395 15.6089 10.7883 19.6022 10.7661 24.5355C10.744 29.4806 14.6878 33.5007 19.5672 33.506V33.5071ZM37.028 8.95478V8.60079C37.028 6.79985 37.0291 4.9989 37.028 3.19689C37.028 2.4301 36.6789 2.07932 35.9132 2.07932C25.07 2.07825 14.2269 2.07825 3.38479 2.07932C2.61797 2.07932 2.26989 2.42903 2.26884 3.19582C2.26673 4.99676 2.26778 6.79771 2.26884 8.59972C2.26884 8.71415 2.28466 8.82858 2.29415 8.95478H37.0291H37.028ZM30.8038 37.0341C31.4504 37.6907 32.0906 38.3581 32.752 39.0029C33.0684 39.3109 33.4882 39.2906 33.7825 39.0051C34.0873 38.7099 34.1137 38.2629 33.7994 37.9314C33.1623 37.2619 32.503 36.6149 31.8628 35.9679C31.5052 36.3283 31.1614 36.6737 30.8038 37.0341ZM29.3714 35.5647C29.7427 35.2 30.0876 34.8631 30.4072 34.5487C30.1656 34.2878 29.9072 34.0076 29.6794 33.7605C29.3155 34.1124 28.9664 34.4492 28.6067 34.7968C28.8788 35.0706 29.1467 35.339 29.3714 35.5647Z" fill="#E6001E"/>
<path d="M22.1566 22.3591C21.9826 22.327 21.8107 22.3174 21.6535 22.2639C21.2485 22.127 20.9816 21.7196 21.008 21.3132C21.0365 20.8779 21.355 20.4854 21.7843 20.4234C22.6165 20.3036 23.4509 20.1967 24.2884 20.1122C24.8084 20.0598 25.2503 20.4287 25.3189 20.9528C25.4265 21.772 25.5193 22.5922 25.6026 23.4136C25.6543 23.928 25.3252 24.3643 24.8347 24.4712C24.359 24.575 23.9435 24.2916 23.6787 23.6328C23.5606 23.7622 23.4561 23.8681 23.3612 23.9814C22.7157 24.7557 22.0723 25.5311 21.4267 26.3053C20.9837 26.8369 20.6241 26.916 20.0038 26.6123C19.2729 26.254 18.544 25.8915 17.8015 25.5246C17.0304 26.4807 16.2741 27.4186 15.5168 28.3576C15.4504 28.44 15.385 28.5234 15.3153 28.6046C14.8797 29.1148 14.3407 29.1993 13.8988 28.8292C13.4653 28.4656 13.44 27.8817 13.846 27.3748C14.5338 26.515 15.2267 25.6594 15.9176 24.8028C16.1919 24.4616 16.463 24.1183 16.7446 23.7825C17.1232 23.3302 17.5198 23.2403 18.043 23.4927C18.7191 23.8189 19.3847 24.1654 20.065 24.4819C20.1726 24.5322 20.392 24.5215 20.4574 24.4477C21.0249 23.7996 21.5702 23.1312 22.1197 22.4682C22.1419 22.4414 22.144 22.3976 22.1556 22.3612L22.1566 22.3591Z" fill="#E6001E"/>
<path d="M28.4537 6.4821C26.7186 6.4821 24.9846 6.4821 23.2494 6.4821C22.5839 6.4821 22.1778 6.12383 22.1736 5.53671C22.1683 4.93354 22.5786 4.56458 23.2663 4.56458C26.7228 4.56351 30.1783 4.56351 33.6348 4.56458C34.2856 4.56458 34.7138 4.94317 34.7212 5.51318C34.7286 6.09924 34.2951 6.48103 33.619 6.4821C31.8976 6.4821 30.1762 6.4821 28.4548 6.4821H28.4537Z" fill="#E6001E"/>
<path d="M11.6289 6.48209C11.0583 6.48851 10.6459 6.09067 10.6427 5.53242C10.6396 4.97311 11.0509 4.56351 11.6142 4.56458C12.1648 4.56565 12.6046 5.00198 12.5962 5.5367C12.5877 6.06073 12.1637 6.47567 11.63 6.48209H11.6289Z" fill="#E6001E"/>
<path d="M5.56174 6.48211C5.00482 6.48425 4.57236 6.06395 4.57447 5.52175C4.57658 4.98168 5.01431 4.56032 5.56912 4.56566C6.10284 4.57101 6.52581 4.98489 6.5353 5.50998C6.5448 6.05433 6.11761 6.48104 5.56174 6.48318V6.48211Z" fill="#E6001E"/>
<path d="M8.5912 6.48215C8.03427 6.48429 7.5997 6.064 7.5997 5.52393C7.5997 4.98493 8.03955 4.56143 8.59331 4.56571C9.13863 4.56998 9.5426 4.96675 9.54999 5.50789C9.55737 6.07469 9.15761 6.48108 8.59014 6.48322L8.5912 6.48215Z" fill="#E6001E"/>
</svg>
