<svg width="36" height="35" viewBox="0 0 36 35" fill="none" xmlns="http://www.w3.org/2000/svg">
<path d="M5.40163 25.0179H1.90211C0.93619 25.0188 0.153377 25.7793 0.152351 26.7176V34.0833C0.152351 34.3962 0.413449 34.6498 0.735582 34.6498H6.5681C6.89023 34.6498 7.15133 34.3962 7.15133 34.0833V26.7176C7.1503 25.7793 6.36756 25.0189 5.40163 25.0179ZM5.98486 33.5167H1.31881V26.7176C1.31922 26.4049 1.58012 26.1515 1.90204 26.1511H5.40157C5.72349 26.1515 5.98439 26.4049 5.9848 26.7176L5.98486 33.5167Z" fill="#E6001E"/>
<path d="M14.7337 17.0857H11.2341C10.2682 17.0867 9.48541 17.8471 9.48438 18.7854V34.0833C9.48438 34.3963 9.74548 34.6499 10.0676 34.6499H15.9001C16.2223 34.6499 16.4834 34.3963 16.4834 34.0833V18.7854C16.4823 17.847 15.6996 17.0867 14.7337 17.0857ZM15.3169 33.5167H10.6508V18.7854C10.6513 18.4727 10.9121 18.2193 11.2341 18.2189H14.7336C15.0555 18.2193 15.3164 18.4727 15.3168 18.7854L15.3169 33.5167Z" fill="#E6001E"/>
<path d="M24.0657 20.4852H20.5662C19.6003 20.4862 18.8174 21.2466 18.8164 22.185V34.0833C18.8164 34.3963 19.0775 34.6499 19.3997 34.6499H25.2322C25.5543 34.6499 25.8154 34.3963 25.8154 34.0833V22.185C25.8144 21.2466 25.0316 20.4862 24.0657 20.4852ZM24.649 33.5167H19.983V22.185C19.9834 21.8722 20.2443 21.6188 20.5662 21.6184H24.0657C24.3876 21.6188 24.6485 21.8722 24.6489 22.185L24.649 33.5167Z" fill="#E6001E"/>
<path d="M33.3978 15.9525H29.8983C28.9324 15.9534 28.1495 16.7139 28.1485 17.6522V34.0833C28.1485 34.3963 28.4096 34.6499 28.7318 34.6499H34.5643C34.8864 34.6499 35.1475 34.3963 35.1475 34.0833V17.6522C35.1465 16.7139 34.3637 15.9534 33.3978 15.9525ZM33.981 33.5167H29.315V17.6522C29.3154 17.3395 29.5763 17.0861 29.8982 17.0857H33.3977C33.7197 17.0861 33.9806 17.3395 33.981 17.6522V33.5167H33.981Z" fill="#E6001E"/>
<path d="M29.0359 7.44152C30.1044 8.60985 31.8556 8.91939 33.2792 8.19154C34.7029 7.4637 35.4318 5.88623 35.0454 4.36913C34.659 2.85202 33.257 1.78674 31.6483 1.78767C30.4803 1.78681 29.389 2.35238 28.7395 3.29528C28.0899 4.23819 27.9678 5.43387 28.4141 6.48235L24.9286 8.59876C24.3015 7.90816 23.4117 7.4957 22.4645 7.45653C21.5174 7.41735 20.5948 7.75498 19.9096 8.39133L16.0921 5.61002C16.8991 4.09358 16.4232 2.23087 14.9797 1.25709C13.5363 0.283309 11.5733 0.500561 10.3924 1.76483C9.21154 3.0291 9.17914 4.94811 10.3167 6.24929L5.4268 11.8942C3.85885 10.998 1.84546 11.4184 0.794988 12.8613C-0.255484 14.3041 0.0072535 16.2883 1.39954 17.4259C2.79183 18.5634 4.8491 18.475 6.13251 17.2224C7.41592 15.9698 7.49725 13.9709 6.31965 12.6238L11.2096 6.9788C12.5522 7.75465 14.2627 7.56515 15.391 6.51555L19.2085 9.29686C18.4655 10.6949 18.8074 12.4055 20.0349 13.4319C21.2624 14.4582 23.0547 14.5319 24.3671 13.6101C25.6796 12.6882 26.1692 11.0118 25.5506 9.5578L29.0359 7.44152ZM31.6483 2.92087C32.9367 2.92087 33.9813 3.93555 33.9813 5.1872C33.9797 6.43826 32.9361 7.45215 31.6483 7.45354C30.3598 7.45354 29.3153 6.43886 29.3153 5.1872C29.3153 3.93555 30.3597 2.92087 31.6483 2.92087ZM3.65209 17.0856C2.36362 17.0856 1.3191 16.071 1.3191 14.8193C1.3191 13.5677 2.36362 12.553 3.65209 12.553C4.94055 12.553 5.98508 13.5677 5.98508 14.8193C5.98357 16.0704 4.93994 17.0842 3.65209 17.0856ZM12.9841 6.32041C11.6957 6.32041 10.6511 5.30572 10.6511 4.05407C10.6511 2.80242 11.6957 1.78774 12.9841 1.78774C14.2726 1.78774 15.3171 2.80242 15.3171 4.05407C15.3157 5.30513 14.272 6.31901 12.9841 6.32041ZM22.3162 13.1195C21.0277 13.1195 19.9832 12.1048 19.9832 10.8531C19.9832 9.60149 21.0277 8.58681 22.3162 8.58681C23.6046 8.58681 24.6492 9.60149 24.6492 10.8531C24.6477 12.1042 23.6041 13.1181 22.3162 13.1195Z" fill="#E6001E"/>
</svg>
