<svg width="47" height="46" viewBox="0 0 47 46" fill="none" xmlns="http://www.w3.org/2000/svg">
<path d="M33.7125 2.25928H13.5875C11.2095 2.25928 9.27502 4.15167 9.27502 6.47803V38.8218C9.27502 41.1481 11.2095 43.0405 13.5875 43.0405H33.7125C36.0906 43.0405 38.025 41.1481 38.025 38.8218V6.47803C38.025 4.15167 36.0906 2.25928 33.7125 2.25928ZM13.5875 3.66553H33.7125C35.2982 3.66553 36.5875 4.92686 36.5875 6.47803V36.0093H10.7125V6.47803C10.7125 4.92686 12.0022 3.66553 13.5875 3.66553ZM33.7125 41.6343H13.5875C12.0022 41.6343 10.7125 40.3729 10.7125 38.8218V37.4155H36.5875V38.8218C36.5875 40.3729 35.2982 41.6343 33.7125 41.6343ZM23.65 30.3843C29.5952 30.3843 34.4313 25.6533 34.4313 19.8374C34.4313 14.0215 29.5952 9.29053 23.65 9.29053C17.7049 9.29053 12.8688 14.0215 12.8688 19.8374C12.8688 25.6533 17.7052 30.3843 23.65 30.3843ZM23.65 10.6968C28.802 10.6968 32.9938 14.7974 32.9938 19.8374C32.9938 24.8774 28.802 28.978 23.65 28.978C18.498 28.978 14.3063 24.8774 14.3063 19.8374C14.3063 14.7974 18.4977 10.6968 23.65 10.6968ZM18.8518 18.3247C18.6124 17.8248 18.6879 17.2514 19.0487 16.8278L21.6605 13.7619C21.9138 13.4639 22.3669 13.4241 22.6726 13.672C22.9776 13.9205 23.0186 14.3641 22.7645 14.6628L20.1531 17.728H28.6812C29.0785 17.728 29.4 18.0425 29.4 18.4312C29.4 18.8198 29.0785 19.1343 28.6812 19.1343H20.1535C19.5898 19.1343 19.0908 18.8239 18.8518 18.3247ZM17.9 21.2437C17.9 20.855 18.2219 20.5405 18.6188 20.5405H27.1469C27.7105 20.5405 28.2096 20.8509 28.4482 21.3501C28.6875 21.85 28.6117 22.4234 28.251 22.8477L25.6399 25.9129C25.4974 26.0797 25.2932 26.1656 25.0868 26.1656C24.9247 26.1656 24.7619 26.112 24.6271 26.0029C24.3225 25.7543 24.2814 25.3107 24.5352 25.0121L27.1462 21.9468H18.6188C18.2219 21.9468 17.9 21.6323 17.9 21.2437Z" fill="#E6001E"/>
</svg>
