<svg width="48" height="47" viewBox="0 0 48 47" fill="none" xmlns="http://www.w3.org/2000/svg">
<path d="M42.0093 5.68115H5.29053C4.70642 5.68178 4.14641 5.90915 3.73339 6.31339C3.32036 6.71763 3.08804 7.26572 3.0874 7.8374V32.9937C3.08804 33.5653 3.32036 34.1134 3.73339 34.5177C4.14641 34.9219 4.70642 35.1493 5.29053 35.1499H15.5718C15.7643 35.1465 15.9477 35.0693 16.0826 34.9349C16.2175 34.8005 16.2931 34.6196 16.2931 34.4311C16.2931 34.2427 16.2175 34.0618 16.0826 33.9274C15.9477 33.793 15.7642 33.7158 15.5717 33.7124H5.29053C5.0958 33.7123 4.90908 33.6365 4.77139 33.5017C4.6337 33.367 4.55628 33.1842 4.55615 32.9937V30.1187H42.7437V32.9937C42.7435 33.1842 42.6661 33.367 42.5284 33.5017C42.3907 33.6365 42.204 33.7123 42.0093 33.7124H19.2437C19.1472 33.7123 19.0517 33.7309 18.9626 33.767C18.8734 33.8031 18.7925 33.856 18.7242 33.9228C18.656 33.9896 18.602 34.0688 18.5651 34.156C18.5282 34.2433 18.5092 34.3368 18.5093 34.4312V40.1812H16.3062C16.1134 40.1841 15.9295 40.2611 15.7942 40.3956C15.6589 40.53 15.5831 40.7112 15.5831 40.8999C15.5831 41.0886 15.6589 41.2698 15.7942 41.4043C15.9295 41.5387 16.1134 41.6157 16.3062 41.6187H30.9937C31.186 41.6151 31.3692 41.5378 31.504 41.4034C31.6387 41.269 31.7142 41.0882 31.7142 40.8999C31.7142 40.7116 31.6387 40.5308 31.504 40.3964C31.3692 40.262 31.186 40.1847 30.9936 40.1812H28.7905V35.1499H42.0093C42.5934 35.1493 43.1534 34.9219 43.5664 34.5177C43.9794 34.1134 44.2118 33.5653 44.2124 32.9937V14.3062C44.2087 14.1179 44.1298 13.9385 43.9924 13.8067C43.8551 13.6748 43.6704 13.6009 43.478 13.6009C43.2856 13.6009 43.1009 13.6748 42.9636 13.8067C42.8263 13.9386 42.7473 14.1179 42.7437 14.3062V28.6812H4.55615V7.8374C4.55628 7.64682 4.6337 7.46407 4.77139 7.32931C4.90908 7.19455 5.0958 7.11878 5.29053 7.11865H42.0093C42.204 7.11878 42.3907 7.19455 42.5284 7.32931C42.6661 7.46407 42.7435 7.64682 42.7437 7.8374V10.7124C42.7464 10.9013 42.825 11.0815 42.9624 11.2141C43.0998 11.3467 43.285 11.4211 43.478 11.4211C43.671 11.4211 43.8563 11.3467 43.9937 11.2141C44.1311 11.0815 44.2097 10.9013 44.2124 10.7124V7.8374C44.2118 7.26572 43.9794 6.71763 43.5664 6.31339C43.1534 5.90915 42.5934 5.68178 42.0093 5.68115ZM27.3218 40.1812H19.978V35.1499H27.3218V40.1812Z" fill="#E6001E"/>
<path d="M23.0991 11.4312C22.7097 11.4316 22.3365 11.5833 22.0611 11.8527C21.7858 12.1222 21.6309 12.4876 21.6304 12.8687V22.9312C21.6309 23.3122 21.7858 23.6776 22.0611 23.9471C22.3365 24.2165 22.7097 24.3682 23.0991 24.3687H33.3804C33.7698 24.3682 34.143 24.2165 34.4184 23.9471C34.6937 23.6776 34.8486 23.3122 34.8491 22.9312V12.8687C34.8486 12.4876 34.6937 12.1222 34.4184 11.8527C34.143 11.5833 33.7698 11.4316 33.3804 11.4312H23.0991ZM23.0991 22.9312V12.8687H27.5054V14.3062C27.5054 14.4968 27.5827 14.6796 27.7205 14.8144C27.8582 14.9492 28.045 15.0249 28.2397 15.0249C28.4345 15.0249 28.6213 14.9492 28.759 14.8144C28.8968 14.6796 28.9741 14.4968 28.9741 14.3062V12.8687H33.3804L33.3818 22.9312H23.0991Z" fill="#E6001E"/>
<path d="M17.0721 13.8934C17.2107 14.0238 17.3961 14.0958 17.5883 14.0939C17.7806 14.0921 17.9644 14.0165 18.1004 13.8834C18.2363 13.7504 18.3136 13.5704 18.3154 13.3823C18.3173 13.1941 18.2438 13.0127 18.1105 12.877L15.9084 10.7217C15.7697 10.5881 15.5828 10.5131 15.3882 10.5131C15.1935 10.5131 15.0067 10.5881 14.868 10.7217L12.6659 12.8771C12.5296 13.0121 12.4534 13.1945 12.454 13.3843C12.4547 13.5741 12.532 13.756 12.6691 13.8902C12.8062 14.0244 12.9921 14.1001 13.186 14.1007C13.38 14.1013 13.5663 14.0268 13.7043 13.8934L14.6538 12.9641V22.8357L13.7043 21.9063C13.5664 21.7725 13.3799 21.6976 13.1857 21.698C12.9915 21.6984 12.8054 21.7741 12.6681 21.9085C12.5307 22.0429 12.4534 22.2251 12.453 22.4152C12.4526 22.6053 12.5291 22.7877 12.6659 22.9227L14.868 25.078C15.0066 25.212 15.1935 25.2871 15.3882 25.2871C15.5829 25.2871 15.7698 25.212 15.9084 25.078L18.1105 22.9227C18.2439 22.7871 18.3176 22.6056 18.3157 22.4174C18.3138 22.2292 18.2366 22.0492 18.1006 21.9161C17.9646 21.783 17.7807 21.7074 17.5884 21.7056C17.396 21.7038 17.2107 21.7759 17.0721 21.9064L16.1226 22.8357V12.9641L17.0721 13.8934Z" fill="#E6001E"/>
</svg>
