<svg width="38" height="38" viewBox="0 0 38 38" fill="none" xmlns="http://www.w3.org/2000/svg">
<path d="M29.5413 5.4563C30.3396 5.4563 31.1051 5.77339 31.6695 6.33783C32.234 6.90226 32.5511 7.66779 32.5511 8.46602V29.5341C32.5511 30.3323 32.234 31.0978 31.6695 31.6623C31.1051 32.2267 30.3396 32.5438 29.5413 32.5438H8.47328C7.67506 32.5438 6.90952 32.2267 6.34509 31.6623C5.78066 31.0978 5.46356 30.3323 5.46356 29.5341V8.46602C5.46356 7.66779 5.78066 6.90226 6.34509 6.33783C6.90952 5.77339 7.67506 5.4563 8.47328 5.4563H29.5413ZM28.7889 28.7816V20.8059C28.7889 19.5048 28.272 18.2569 27.352 17.3369C26.432 16.4169 25.1842 15.9 23.8831 15.9C22.6039 15.9 21.1141 16.6826 20.3918 17.8564V16.186H16.1932V28.7816H20.3918V21.3627C20.3918 20.2039 21.3248 19.2559 22.4835 19.2559C23.0423 19.2559 23.5782 19.4778 23.9733 19.8729C24.3684 20.268 24.5903 20.8039 24.5903 21.3627V28.7816H28.7889ZM11.3024 13.8233C11.9729 13.8233 12.616 13.557 13.0901 13.0828C13.5642 12.6087 13.8306 11.9657 13.8306 11.2952C13.8306 9.89564 12.7019 8.75194 11.3024 8.75194C10.6279 8.75194 9.98104 9.01989 9.5041 9.49683C9.02715 9.97378 8.75921 10.6207 8.75921 11.2952C8.75921 12.6947 9.9029 13.8233 11.3024 13.8233ZM13.3942 28.7816V16.186H9.22571V28.7816H13.3942Z" fill="black"/>
</svg>
