<svg width="34" height="33" viewBox="0 0 34 33" fill="none" xmlns="http://www.w3.org/2000/svg">
<path d="M17.0073 0.793701C14.8791 0.793701 12.7717 1.21289 10.8055 2.02732C8.83924 2.84176 7.05269 4.0355 5.5478 5.54039C2.50855 8.57964 0.801117 12.7017 0.801117 16.9999C0.801117 24.163 5.4523 30.2404 11.8862 32.3958C12.6965 32.5254 12.9558 32.023 12.9558 31.5855V28.8466C8.46665 29.819 7.51048 26.675 7.51048 26.675C6.765 24.7951 5.71159 24.2927 5.71159 24.2927C4.23683 23.2879 5.82504 23.3203 5.82504 23.3203C7.44566 23.4338 8.30459 24.9895 8.30459 24.9895C9.71452 27.4529 12.0968 26.7236 13.0206 26.3347C13.1664 25.2813 13.5878 24.5682 14.0416 24.163C10.4438 23.7579 6.66776 22.3641 6.66776 16.1896C6.66776 14.3907 7.2836 12.9483 8.337 11.7977C8.17494 11.3926 7.60772 9.70711 8.49906 7.51927C8.49906 7.51927 9.86038 7.0817 12.9558 9.1723C14.2361 8.81577 15.6298 8.6375 17.0073 8.6375C18.3848 8.6375 19.7786 8.81577 21.0589 9.1723C24.1542 7.0817 25.5156 7.51927 25.5156 7.51927C26.4069 9.70711 25.8397 11.3926 25.6776 11.7977C26.731 12.9483 27.3469 14.3907 27.3469 16.1896C27.3469 22.3804 23.5546 23.7417 19.9406 24.1468C20.5241 24.6492 21.0589 25.6378 21.0589 27.145V31.5855C21.0589 32.023 21.3182 32.5416 22.1447 32.3958C28.5785 30.2241 33.2135 24.163 33.2135 16.9999C33.2135 14.8717 32.7943 12.7643 31.9799 10.7981C31.1654 8.83183 29.9717 7.04527 28.4668 5.54039C26.9619 4.0355 25.1754 2.84176 23.2092 2.02732C21.2429 1.21289 19.1355 0.793701 17.0073 0.793701Z" fill="black"/>
</svg>
