<svg width="28" height="28" viewBox="0 0 28 28" fill="none" xmlns="http://www.w3.org/2000/svg">
<path d="M15.4354 0.108887C16.9982 0.113054 17.7914 0.121389 18.4762 0.140836L18.7457 0.15056C19.0568 0.161673 19.3638 0.175564 19.7347 0.192233C21.2127 0.261688 22.2212 0.495057 23.1061 0.838166C24.0229 1.191 24.7952 1.66885 25.5676 2.4398C26.2742 3.13398 26.8208 3.97403 27.1692 4.90129C27.5123 5.78615 27.7457 6.79464 27.8151 8.27403C27.8318 8.64353 27.8457 8.95052 27.8568 9.26307L27.8651 9.53256C27.886 10.216 27.8943 11.0092 27.8971 12.5719L27.8985 13.6082V15.4279C27.9018 16.4411 27.8912 17.4543 27.8665 18.4673L27.8582 18.7367C27.8471 19.0493 27.8332 19.3563 27.8165 19.7258C27.7471 21.2052 27.5109 22.2123 27.1692 23.0985C26.8208 24.0258 26.2742 24.8658 25.5676 25.56C24.8734 26.2666 24.0333 26.8132 23.1061 27.1617C22.2212 27.5048 21.2127 27.7381 19.7347 27.8076L18.7457 27.8493L18.4762 27.8576C17.7914 27.877 16.9982 27.8868 15.4354 27.8895L14.3992 27.8909H12.5808C11.5672 27.8945 10.5535 27.8839 9.54009 27.859L9.27061 27.8507C8.94085 27.8382 8.61116 27.8238 8.28156 27.8076C6.80356 27.7381 5.79507 27.5048 4.90882 27.1617C3.98206 26.8131 3.1425 26.2665 2.44872 25.56C1.74159 24.866 1.19452 24.0259 0.8457 23.0985C0.502592 22.2137 0.269222 21.2052 0.199767 19.7258L0.158094 18.7367L0.151149 18.4673C0.125542 17.4544 0.113965 16.4411 0.116421 15.4279V12.5719C0.112576 11.5587 0.122764 10.5455 0.146982 9.53256L0.156705 9.26307C0.167818 8.95052 0.181709 8.64353 0.198378 8.27403C0.267833 6.79464 0.501202 5.78754 0.844311 4.90129C1.19394 3.97364 1.74198 3.13357 2.45011 2.4398C3.14349 1.73351 3.98255 1.18693 4.90882 0.838166C5.79507 0.495057 6.80217 0.261688 8.28156 0.192233C8.65107 0.175564 8.95945 0.161673 9.27061 0.15056L9.54009 0.142225C10.553 0.117545 11.5662 0.106894 12.5794 0.110276L15.4354 0.108887ZM14.0074 7.0544C12.1654 7.0544 10.3988 7.78616 9.09623 9.08869C7.79369 10.3912 7.06193 12.1578 7.06193 13.9999C7.06193 15.842 7.79369 17.6086 9.09623 18.9111C10.3988 20.2137 12.1654 20.9454 14.0074 20.9454C15.8495 20.9454 17.6161 20.2137 18.9187 18.9111C20.2212 17.6086 20.953 15.842 20.953 13.9999C20.953 12.1578 20.2212 10.3912 18.9187 9.08869C17.6161 7.78616 15.8495 7.0544 14.0074 7.0544ZM14.0074 9.8326C14.5547 9.83251 15.0966 9.94021 15.6023 10.1496C16.1079 10.3589 16.5673 10.6658 16.9544 11.0527C17.3414 11.4396 17.6485 11.8989 17.858 12.4045C18.0675 12.9101 18.1754 13.452 18.1754 13.9992C18.1755 14.5465 18.0678 15.0884 17.8585 15.594C17.6492 16.0997 17.3423 16.5591 16.9554 16.9461C16.5685 17.3332 16.1091 17.6402 15.6035 17.8497C15.098 18.0592 14.5561 18.1671 14.0088 18.1672C12.9036 18.1672 11.8436 17.7282 11.0621 16.9466C10.2806 16.1651 9.84153 15.1051 9.84153 13.9999C9.84153 12.8947 10.2806 11.8347 11.0621 11.0532C11.8436 10.2717 12.9036 9.8326 14.0088 9.8326M21.3016 4.97075C20.8411 4.97075 20.3995 5.15368 20.0738 5.47932C19.7482 5.80495 19.5652 6.24661 19.5652 6.70712C19.5652 7.16764 19.7482 7.60929 20.0738 7.93493C20.3995 8.26056 20.8411 8.4435 21.3016 8.4435C21.7621 8.4435 22.2038 8.26056 22.5294 7.93493C22.8551 7.60929 23.038 7.16764 23.038 6.70712C23.038 6.24661 22.8551 5.80495 22.5294 5.47932C22.2038 5.15368 21.7621 4.97075 21.3016 4.97075Z" fill="black"/>
</svg>
