<svg width="40" height="40" viewBox="0 0 40 40" fill="none" xmlns="http://www.w3.org/2000/svg">
<g clip-path="url(#clip0_1_226)">
<path d="M38 4.66662H28.4447C26.6195 1.7625 23.4301 0 20 0C16.5699 0 13.3805 1.7625 11.5553 4.66662H2C0.895431 4.66662 0 5.56205 0 6.66662V31.3333C0 32.4379 0.895431 33.3333 2 33.3333H13.9913C13.8433 34.4019 13.2991 35.3758 12.4667 36.062H12C10.9297 36.062 10.062 36.9296 10.062 38C10.062 39.0703 10.9297 39.938 12 39.938H28C29.0703 39.938 29.938 39.0703 29.938 38C29.938 36.9296 29.0703 36.062 28 36.062H27.5333C26.7009 35.3758 26.1567 34.4019 26.0087 33.3333H38C39.1046 33.3333 40 32.4379 40 31.3333V6.66662C40 5.56205 39.1046 4.66662 38 4.66662ZM31.5387 10.6666L29.914 11.3166C29.9685 10.8966 29.9967 10.4735 29.9987 10.05L31.5387 10.6666ZM10 10.05C10.0019 10.4735 10.0302 10.8966 10.0847 11.3166L8.46133 10.6666L10 10.05ZM7.33333 11.65L19.3333 16.45V25.682L7.33333 20.882V11.65ZM20.6667 16.45L32.6667 11.65V20.882L20.6667 25.682V16.45ZM20 1.33329C24.7842 1.3388 28.6612 5.21577 28.6667 9.99995C28.6631 10.6418 28.5869 11.2812 28.4393 11.906L20 15.282L11.5607 11.906C11.4131 11.2812 11.3369 10.6418 11.3333 9.99995C11.3388 5.21577 15.2158 1.3388 20 1.33329ZM28.7287 38C28.7283 38.4022 28.4023 38.7282 28 38.7286H12C11.5976 38.7286 11.2713 38.4024 11.2713 38C11.2713 37.5975 11.5976 37.2713 12 37.2713H28C28.4023 37.2717 28.7283 37.5977 28.7287 38ZM25.8507 36.062H14.1493C14.7207 35.2525 15.0859 34.3158 15.2133 33.3333H24.7867C24.9141 34.3158 25.2793 35.2525 25.8507 36.062ZM38 32H2C1.63181 32 1.33333 31.7015 1.33333 31.3333V30H4C4.36819 30 4.66667 29.7015 4.66667 29.3333C4.66667 28.9651 4.36819 28.6666 4 28.6666H1.33333V6.66662C1.33333 6.29843 1.63181 5.99995 2 5.99995H10.8407C10.4841 6.81936 10.2399 7.68317 10.1147 8.56795L6.41867 10.0473C6.1656 10.1487 5.99979 10.394 6 10.6666V21.3333C5.9999 21.6061 6.16601 21.8514 6.41933 21.9526L19.7527 27.286C19.9115 27.3494 20.0885 27.3494 20.2473 27.286L33.5807 21.9526C33.834 21.8514 34.0001 21.6061 34 21.3333V10.6666C34.0002 10.394 33.8344 10.1487 33.5813 10.0473L29.8853 8.56795C29.7601 7.68317 29.5159 6.81936 29.1593 5.99995H38C38.3682 5.99995 38.6667 6.29843 38.6667 6.66662V28.6666H6.66667C6.29848 28.6666 6 28.9651 6 29.3333C6 29.7015 6.29848 30 6.66667 30H38.6667V31.3333C38.6667 31.7015 38.3682 32 38 32Z" fill="#E6001E"/>
<path d="M20 13.3333C21.841 13.3333 23.3333 11.8409 23.3333 9.99996C23.3333 8.15901 21.841 6.66663 20 6.66663C18.1591 6.66663 16.6667 8.15901 16.6667 9.99996C16.6689 11.84 18.16 13.3311 20 13.3333ZM20 7.99996C21.1046 7.99996 22 8.89539 22 9.99996C22 11.1045 21.1046 12 20 12C18.8954 12 18 11.1045 18 9.99996C18 8.89539 18.8954 7.99996 20 7.99996Z" fill="#E6001E"/>
<path d="M20 10.6667C20.3682 10.6667 20.6667 10.3682 20.6667 10C20.6667 9.63185 20.3682 9.33337 20 9.33337C19.6318 9.33337 19.3333 9.63185 19.3333 10C19.3333 10.3682 19.6318 10.6667 20 10.6667Z" fill="#E6001E"/>
</g>
<defs>
<clipPath id="clip0_1_226">
<rect width="40" height="40" fill="white"/>
</clipPath>
</defs>
</svg>
