<svg width="46" height="38" viewBox="0 0 46 38" fill="none" xmlns="http://www.w3.org/2000/svg">
<path d="M45.0779 9.58921L29.2321 0.850933C28.956 0.698778 28.6214 0.698778 28.3453 0.850933L22.3866 4.13691C22.252 4.1745 22.1264 4.24353 22.0199 4.33894L12.4995 9.58921C12.2047 9.75185 12.0216 10.0627 12.0216 10.4002V12.2919H1.3924C0.883543 12.2919 0.47113 12.7064 0.47113 13.2171C0.47113 13.7281 0.883543 14.1423 1.3924 14.1423H12.0216V17.4731H6.73973C6.23087 17.4731 5.81846 17.8877 5.81846 18.3983C5.81846 18.9094 6.23087 19.3236 6.73973 19.3236H12.0216V24.1347H4.28289C3.77403 24.1347 3.36162 24.5492 3.36162 25.0599C3.36162 25.571 3.77403 25.9851 4.28289 25.9851H12.0216V27.8771C12.0216 28.2147 12.2047 28.5255 12.4995 28.6882L28.3453 37.4264C28.4835 37.5027 28.6361 37.5406 28.7887 37.5406C28.9413 37.5406 29.0939 37.5027 29.2321 37.4264L45.0779 28.6882C45.3726 28.5255 45.5558 28.2147 45.5558 27.8771V23.7339C45.5558 23.2232 45.1434 22.8087 44.6346 22.8087C44.1257 22.8087 43.7133 23.2232 43.7133 23.7339V27.3296L29.71 35.0519V19.6861L34.1634 17.2302V21.1277C34.1634 21.4552 34.3354 21.758 34.6157 21.9243C34.76 22.0099 34.9223 22.053 35.0846 22.053C35.2372 22.053 35.3902 22.015 35.5287 21.9384L38.9245 20.0616C39.2185 19.8989 39.4013 19.5885 39.4013 19.2509V14.3418L43.7133 11.9641V16.3321C43.7133 16.8432 44.1257 17.2573 44.6346 17.2573C45.1434 17.2573 45.5558 16.8432 45.5558 16.3321V10.4002C45.5558 10.0627 45.3726 9.75185 45.0779 9.58921ZM27.8674 35.0519L13.8641 27.3296V11.9641L27.8674 19.6861V35.0519ZM28.7887 18.0832L14.857 10.4002L19.2355 7.98562L33.1676 15.6686L28.7887 18.0832ZM35.0818 14.6129L21.1497 6.92992L22.6601 6.09723L36.5918 13.7802L35.0818 14.6129ZM37.5588 18.7041L36.0059 19.5624V16.2143L37.5588 15.3577V18.7041ZM38.5059 12.7245L24.5742 5.04153L28.7887 2.71764L42.7204 10.4002L38.5059 12.7245Z" fill="#E6001E"/>
</svg>
