<svg width="39" height="44" viewBox="0 0 39 44" fill="none" xmlns="http://www.w3.org/2000/svg">
<path d="M14.4396 0.907975C22.1919 0.258784 29.893 5.26938 31.5773 13.0128C31.7937 14.0078 32.3447 16.4038 30.8657 16.6693C28.8244 17.0329 29.284 14.309 28.3492 11.8751C25.1077 3.43335 14.0626 0.957055 7.31855 6.88901C1.11889 12.3435 1.45576 22.512 8.17299 27.3976C9.98224 28.7139 12.3894 29.0373 11.3542 30.8622C10.096 33.0797 4.83557 28.2275 3.85397 27.0652C-0.933532 21.3988 -1.08746 13.0284 3.37879 7.12771C5.86624 3.8416 10.3035 1.25376 14.4396 0.907975Z" fill="#E6001E"/>
<path d="M15.8629 8.50421C16.8557 8.39936 17.5026 9.29841 17.4758 10.2131C22.6605 11.3664 19.0888 17.0084 17.3799 13.0619C16.6281 12.9281 13.9957 13.285 14.105 14.3447C14.221 15.4601 19.1356 15.4111 20.3716 17.7624C21.5829 20.0714 19.7291 22.4629 17.429 22.985C17.7859 25.5215 14.6984 25.8316 14.6292 23.3174C11.5863 23.4133 10.9639 18.6548 13.6789 19.2348C14.5199 19.4133 14.6448 20.5243 14.7229 20.5644C15.0665 20.7384 17.574 20.3213 17.9042 19.6632C18.7073 18.0614 13.2059 18.3715 11.8272 15.9599C10.5578 13.7401 12.1864 11.1835 14.5333 10.6905C14.7318 10.5343 14.511 8.64922 15.8629 8.50644V8.50421Z" fill="#E6001E"/>
<path d="M24.9783 18.5677C26.6069 18.3334 28.4563 19.0741 29.2037 20.6089C29.9666 22.175 29.3754 25.5102 29.632 27.3976C32.2466 27.9664 36.0525 27.3953 37.7502 29.8181C38.3816 30.7194 38.6314 31.9575 38.5087 33.0462C37.7502 35.672 36.9895 38.3 36.231 40.9257C35.8629 41.7155 34.7519 42.7551 33.9042 42.967C30.6136 42.9982 27.3208 43.0295 24.0302 43.0629C23.5863 42.8733 23.1445 42.6837 22.7006 42.494C22.0692 42.0947 15.2159 34.2553 14.9616 33.6173C13.7168 30.4717 16.7218 27.0719 20.4206 28.8231C20.9114 29.1243 21.4022 29.4254 21.893 29.7244C22.0514 27.7634 21.6431 22.8733 21.9889 21.3697C22.2656 20.1628 23.738 18.7484 24.9806 18.5699L24.9783 18.5677ZM25.7368 21.2269C25.4134 21.2269 24.7262 21.6999 24.6459 22.0345V32.3836C24.5009 33.209 23.7134 33.711 22.8902 33.5705C21.5294 32.7473 20.1685 31.9241 18.8077 31.1008C17.8239 30.9291 17.1144 31.7077 17.5249 32.6669C19.8183 35.2146 22.1139 37.7623 24.4072 40.31C24.869 40.4728 32.6972 40.4728 33.1412 40.31C33.6766 40.1137 33.7368 39.5693 33.9488 39.1232C34.1429 37.4611 36.1284 32.9123 35.6576 31.6229C35.1289 30.1728 29.3375 30.4204 27.825 29.9609C25.9376 29.3875 27.236 23.7255 26.8278 22.0323C26.7474 21.6976 26.0581 21.2247 25.7368 21.2247V21.2269Z" fill="#E6001E"/>
</svg>
