<svg width="48" height="47" viewBox="0 0 48 47" fill="none" xmlns="http://www.w3.org/2000/svg">
<path d="M42.7 5.98828H5.9812C5.39709 5.98891 4.83709 6.21628 4.42406 6.62052C4.01103 7.02476 3.77871 7.57285 3.77808 8.14453V33.3008C3.77871 33.8725 4.01103 34.4206 4.42406 34.8248C4.83709 35.229 5.39709 35.4564 5.9812 35.457H16.2625C16.4549 35.4537 16.6384 35.3764 16.7733 35.242C16.9082 35.1076 16.9838 34.9267 16.9838 34.7383C16.9838 34.5498 16.9082 34.3689 16.7733 34.2345C16.6384 34.1001 16.4549 34.0229 16.2624 34.0195H5.9812C5.78647 34.0194 5.59976 33.9436 5.46206 33.8089C5.32437 33.6741 5.24696 33.4914 5.24683 33.3008V30.4258H43.4343V33.3008C43.4342 33.4914 43.3568 33.6741 43.2191 33.8089C43.0814 33.9436 42.8947 34.0194 42.7 34.0195H19.9343C19.8379 34.0195 19.7424 34.038 19.6532 34.0741C19.5641 34.1102 19.4831 34.1632 19.4149 34.2299C19.3467 34.2967 19.2926 34.3759 19.2557 34.4632C19.2189 34.5504 19.1999 34.6439 19.2 34.7383V40.4883H16.9968C16.804 40.4912 16.6201 40.5682 16.4849 40.7027C16.3496 40.8372 16.2738 41.0183 16.2738 41.207C16.2738 41.3958 16.3496 41.5769 16.4849 41.7114C16.6202 41.8459 16.8041 41.9229 16.9969 41.9258H31.6843C31.8767 41.9222 32.0599 41.8449 32.1947 41.7105C32.3294 41.5761 32.4049 41.3953 32.4049 41.207C32.4049 41.0187 32.3294 40.8379 32.1946 40.7035C32.0599 40.5691 31.8766 40.4918 31.6843 40.4883H29.4812V35.457H42.7C43.2841 35.4564 43.8441 35.229 44.2571 34.8248C44.6701 34.4206 44.9024 33.8725 44.9031 33.3008V14.6133C44.8994 14.425 44.8204 14.2457 44.6831 14.1138C44.5458 13.9819 44.3611 13.9081 44.1687 13.9081C43.9763 13.9081 43.7916 13.982 43.6543 14.1138C43.5169 14.2457 43.438 14.4251 43.4343 14.6133V28.9883H5.24683V8.14453C5.24696 7.95395 5.32437 7.7712 5.46206 7.63644C5.59976 7.50167 5.78647 7.42591 5.9812 7.42578H42.7C42.8947 7.42591 43.0814 7.50167 43.2191 7.63644C43.3568 7.7712 43.4342 7.95395 43.4343 8.14453V11.0195C43.4371 11.2084 43.5156 11.3886 43.6531 11.5212C43.7905 11.6538 43.9757 11.7282 44.1687 11.7282C44.3617 11.7282 44.5469 11.6538 44.6843 11.5212C44.8218 11.3886 44.9003 11.2084 44.9031 11.0195V8.14453C44.9024 7.57285 44.6701 7.02476 44.2571 6.62052C43.8441 6.21628 43.2841 5.98891 42.7 5.98828ZM28.0125 40.4883H20.6687V35.457H28.0125V40.4883Z" fill="#E6001E"/>
<path d="M23.7898 11.7383C23.4004 11.7388 23.0271 11.8904 22.7518 12.1599C22.4765 12.4293 22.3216 12.7947 22.321 13.1758V23.2383C22.3216 23.6194 22.4765 23.9847 22.7518 24.2542C23.0271 24.5237 23.4004 24.6753 23.7898 24.6758H34.071C34.4604 24.6753 34.8337 24.5237 35.109 24.2542C35.3844 23.9847 35.5393 23.6194 35.5398 23.2383V13.1758C35.5393 12.7947 35.3844 12.4293 35.109 12.1599C34.8337 11.8904 34.4604 11.7388 34.071 11.7383H23.7898ZM23.7898 23.2383V13.1758H28.196V14.6133C28.196 14.8039 28.2734 14.9867 28.4111 15.1215C28.5489 15.2563 28.7357 15.332 28.9304 15.332C29.1252 15.332 29.312 15.2563 29.4497 15.1215C29.5874 14.9867 29.6648 14.8039 29.6648 14.6133V13.1758H34.071L34.0725 23.2383H23.7898Z" fill="#E6001E"/>
<path d="M17.7628 14.2006C17.9014 14.331 18.0867 14.403 18.279 14.4011C18.4713 14.3993 18.6551 14.3237 18.791 14.1906C18.927 14.0576 19.0042 13.8776 19.0061 13.6894C19.008 13.5013 18.9344 13.3199 18.8012 13.1842L16.599 11.0289C16.4603 10.8952 16.2735 10.8203 16.0789 10.8203C15.8842 10.8203 15.6974 10.8952 15.5587 11.0289L13.3565 13.1843C13.2202 13.3193 13.1441 13.5017 13.1447 13.6915C13.1453 13.8813 13.2226 14.0632 13.3598 14.1974C13.4969 14.3316 13.6827 14.4073 13.8767 14.4079C14.0706 14.4085 14.2569 14.334 14.3949 14.2006L15.3445 13.2713V23.1429L14.3949 22.2135C14.257 22.0797 14.0706 22.0048 13.8764 22.0052C13.6822 22.0056 13.496 22.0813 13.3587 22.2157C13.2214 22.3501 13.1441 22.5323 13.1437 22.7224C13.1433 22.9124 13.2198 23.0949 13.3565 23.2299L15.5587 25.3852C15.6972 25.5192 15.8841 25.5943 16.0789 25.5943C16.2736 25.5943 16.4605 25.5192 16.599 25.3852L18.8012 23.2299C18.9346 23.0943 19.0082 22.9128 19.0064 22.7246C19.0045 22.5364 18.9273 22.3564 18.7913 22.2233C18.6553 22.0902 18.4713 22.0146 18.279 22.0128C18.0867 22.011 17.9013 22.0831 17.7627 22.2136L16.8132 23.1429V13.2713L17.7628 14.2006Z" fill="#E6001E"/>
</svg>
