<svg width="55" height="57" viewBox="0 0 55 57" fill="none" xmlns="http://www.w3.org/2000/svg">
<g clip-path="url(#clip0_1_80)">
<path d="M54.9997 6.07896V50.924C54.9639 51.0014 54.9108 51.0759 54.8935 51.1578C54.2004 54.4061 51.669 56.4985 48.4186 56.4985C34.4382 56.4985 20.4579 56.5015 6.47614 56.4985C2.86267 56.4985 0.00403561 53.5849 0.00403561 49.9099C0.0011655 35.6366 -0.00744485 21.3648 0.0112109 7.09305C0.014081 4.3401 1.32429 2.34991 3.73088 1.12833C4.27907 0.849233 4.89471 0.706033 5.47878 0.5C20.1594 0.5 34.84 0.5 49.5207 0.5C49.6154 0.539453 49.7072 0.590596 49.8063 0.613976C52.2071 1.18239 53.8345 2.6407 54.6725 5.00204C54.7974 5.35419 54.8907 5.7195 54.9997 6.07896ZM3.22143 16.9256V17.4736C3.22143 28.1902 3.22143 38.9068 3.22143 49.6235C3.22143 51.8548 4.57326 53.221 6.78038 53.221C20.5985 53.221 34.4167 53.221 48.2349 53.221C50.4348 53.221 51.7766 51.8504 51.7766 49.6059C51.7766 38.9068 51.7766 28.2092 51.7766 17.5101V16.9256H3.22143ZM3.23291 13.5911H51.7378C51.7565 13.521 51.7723 13.4859 51.7737 13.4523C51.7766 11.4665 51.7795 9.47923 51.7795 7.49343C51.7795 5.10724 50.4721 3.78045 48.1201 3.78045C34.3737 3.78045 20.6287 3.78045 6.88226 3.78045C6.73876 3.78045 6.59525 3.77753 6.45318 3.78191C4.72824 3.83306 3.32045 5.08825 3.25444 6.83733C3.16977 9.07301 3.23435 11.3145 3.23435 13.5911H3.23291Z" fill="#E6001E"/>
<path d="M32.4567 43.3957H26.672C26.7322 43.9583 26.8413 44.5092 26.8427 45.0586C26.8485 47.7546 24.6744 49.9362 22.0152 49.9362C19.3517 49.9362 17.2049 47.7589 17.1834 45.0571C17.1748 44.0796 17.4489 43.2014 17.9239 42.3626C18.0401 42.1581 18.0989 41.8512 18.0473 41.6247C16.6653 35.7038 15.2618 29.7873 13.8713 23.8679C13.8009 23.5669 13.6833 23.4558 13.3704 23.4602C11.9382 23.4778 10.5075 23.4705 9.0753 23.4661C8.06502 23.4631 7.30874 22.7355 7.33027 21.8003C7.35179 20.8724 8.08511 20.1929 9.07673 20.1915C11.027 20.1885 12.9787 20.1885 14.9289 20.1915C15.8717 20.1929 16.4228 20.6328 16.651 21.5796C16.9925 22.9897 17.3226 24.4027 17.6742 25.8829C17.8794 25.8829 18.0889 25.8829 18.2984 25.8829C24.7949 25.8829 31.2914 25.8786 37.7879 25.8859C40.4514 25.8888 42.6097 27.6393 43.2325 30.2681C43.4693 31.2676 43.4004 32.2524 43.0948 33.2285C42.2883 35.8076 41.4918 38.391 40.671 40.9657C40.559 41.3164 40.5791 41.537 40.8331 41.8308C42.195 43.4133 42.3787 45.7249 41.3268 47.5266C40.295 49.2947 38.2414 50.2591 36.3385 49.8689C34.2046 49.432 32.6102 47.7969 32.3778 45.6855C32.296 44.9417 32.4265 44.1746 32.4596 43.3986L32.4567 43.3957ZM18.5108 29.1692C18.495 29.2817 18.4792 29.3197 18.4878 29.3533C19.3058 32.815 20.1295 36.2766 20.9389 39.7397C21.0078 40.0364 21.147 40.108 21.4211 40.1021C22.1903 40.0875 22.9595 40.0963 23.7301 40.0963C28.1687 40.0963 32.6059 40.0963 37.0446 40.0963C37.3057 40.0963 37.5382 40.146 37.6559 39.7617C38.4265 37.2294 39.2416 34.7102 40.0151 32.1779C40.3323 31.139 39.929 30.0124 39.0135 29.5433C38.5413 29.3022 37.9573 29.1853 37.422 29.1838C31.3015 29.1605 25.1824 29.1678 19.0619 29.1678H18.5108V29.1692ZM20.4094 45.0133C20.4079 45.8813 21.1585 46.6528 22.0109 46.6557C22.8619 46.6586 23.6225 45.8871 23.6239 45.0191C23.6268 44.1526 22.8676 43.3782 22.0166 43.3767C21.1628 43.3753 20.4108 44.1395 20.4094 45.0118V45.0133ZM35.555 45.0235C35.5593 45.8944 36.3156 46.6601 37.1665 46.6557C38.019 46.6513 38.7752 45.874 38.7695 45.0089C38.7638 44.1409 38.0017 43.3709 37.1522 43.3767C36.2955 43.3826 35.5507 44.1512 35.555 45.0235Z" fill="#E6001E"/>
<path d="M33.8889 10.3414C29.5952 10.3414 25.3015 10.3428 21.0078 10.3399C20.1339 10.3399 19.4551 9.75833 19.346 8.94589C19.2369 8.12468 19.699 7.37799 20.4869 7.13689C20.6706 7.0799 20.8729 7.06675 21.0666 7.06675C29.654 7.06383 38.2414 7.06383 46.8288 7.06529C47.8405 7.06529 48.5422 7.72869 48.5523 8.67702C48.5623 9.65604 47.8592 10.3399 46.8245 10.3399C42.5136 10.3428 38.2012 10.3399 33.8903 10.3399L33.8889 10.3414Z" fill="#E6001E"/>
<path d="M8.05928 10.3414C7.14945 10.3414 6.4391 9.6093 6.44914 8.67704C6.45919 7.77546 7.16667 7.06531 8.05497 7.06531C8.96623 7.06531 9.67658 7.79738 9.66654 8.72818C9.65649 9.62976 8.94758 10.3414 8.05928 10.3414Z" fill="#E6001E"/>
<path d="M14.4582 10.3413C13.5556 10.3223 12.8653 9.56688 12.894 8.63023C12.9227 7.73889 13.6517 7.04627 14.5457 7.06526C15.4283 7.0828 16.1186 7.81341 16.11 8.72083C16.1028 9.64432 15.3723 10.3603 14.4568 10.3413H14.4582Z" fill="#E6001E"/>
</g>
<defs>
<clipPath id="clip0_1_80">
<rect width="55" height="56" fill="white" transform="translate(0 0.5)"/>
</clipPath>
</defs>
</svg>
