<svg width="63" height="65" viewBox="0 0 63 65" fill="none" xmlns="http://www.w3.org/2000/svg">
<path d="M39.5785 53.7515H23.2749C23.2749 53.3031 23.2576 52.8789 23.2783 52.4581C23.368 50.6681 22.5868 49.4057 21.0779 48.4572C16.0353 45.2875 12.9726 40.7383 11.9224 34.8818C10.3806 26.2868 15.0438 17.4003 22.9835 13.6891C33.929 8.57418 46.7715 14.2082 50.3723 25.7039C53.0643 34.2972 49.6429 43.5872 41.9584 48.3882C40.3322 49.404 39.5199 50.7422 39.6286 52.6495C39.6458 52.9496 39.6286 53.2514 39.6251 53.5532C39.6251 53.5946 39.6061 53.636 39.5803 53.7515H39.5785ZM23.994 21.0218C22.9231 22.0893 21.9384 23.0705 20.8123 24.1932C21.3158 24.5933 21.8677 25.033 22.2436 25.3331C21.7125 26.7058 21.271 27.8871 20.7916 29.0512C20.7174 29.2288 20.476 29.4357 20.2949 29.453C19.7483 29.5064 19.1912 29.4719 18.6221 29.4719V33.766H20.5709C21.1555 35.1663 21.697 36.4597 22.3212 37.9566C21.897 38.3101 21.3727 38.7464 20.9313 39.1138C21.9712 40.1536 22.9507 41.1349 24.0182 42.2041C24.4183 41.7333 24.8615 41.2108 25.2133 40.7969C26.6584 41.3953 27.9553 41.9316 29.3245 42.499V44.477H33.5893V42.5042C34.9723 41.9316 36.2726 41.3936 37.7557 40.7796C38.1231 41.1832 38.5921 41.7005 38.975 42.1213C40.0097 41.0952 40.9944 40.1174 42.0136 39.1069C41.7032 38.8033 41.3686 38.4377 40.9961 38.117C40.665 37.8324 40.6443 37.6151 40.8512 37.1978C41.3238 36.2424 41.7152 35.2405 42.0756 34.2351C42.1981 33.8919 42.3067 33.7263 42.681 33.7488C43.1104 33.7746 43.5432 33.7781 43.9709 33.7384C44.1106 33.7263 44.3451 33.5522 44.3486 33.4487C44.3744 32.145 44.3658 30.8412 44.3658 29.4737C43.7398 29.4737 43.2052 29.4582 42.6723 29.4788C42.3378 29.4909 42.2102 29.3668 42.0895 29.0425C41.6963 27.982 41.2669 26.93 40.7943 25.9039C40.646 25.5831 40.6615 25.4124 40.9081 25.1934C41.3203 24.8295 41.7118 24.4415 42.1533 24.0259C41.1806 23.0619 40.2959 22.1841 39.4113 21.3081C39.3061 21.2029 39.1905 21.1097 39.0664 20.9976C38.9129 21.1442 38.7715 21.2753 38.6352 21.4081C38.2955 21.7375 37.9902 22.2824 37.6109 22.3393C37.2142 22.398 36.7572 21.9651 36.3106 21.7857C35.4224 21.4305 34.5222 21.1046 33.5634 20.7407V18.7351H29.3038V20.7148C27.9277 21.2874 26.6308 21.8271 25.2305 22.41C24.8459 21.9754 24.4045 21.4788 23.9975 21.0218H23.994Z" fill="#E6001E"/>
<path d="M23.3404 56.09H39.5371C39.9665 58.0421 38.7421 59.6132 36.7882 59.6183C33.3047 59.627 29.8194 59.5597 26.3393 59.6459C24.4337 59.6925 22.98 58.1887 23.3404 56.09Z" fill="#E6001E"/>
<path d="M36.6952 62.0034C36.1105 63.4606 35.1258 64.4522 33.6031 64.6212C32.2269 64.7729 30.8145 64.7626 29.4349 64.6402C27.869 64.5005 26.8585 63.5037 26.2169 62.0051H36.6952V62.0034Z" fill="#E6001E"/>
<path d="M5.65027 47.6105C4.96736 47.6001 4.58969 47.3518 4.40172 46.862C4.20167 46.343 4.3086 45.8256 4.77422 45.5445C6.33491 44.6012 7.91975 43.6941 9.51666 42.8146C10.0099 42.5421 10.6272 42.7818 10.9135 43.2647C11.2136 43.7683 11.1601 44.2546 10.76 44.6822C10.6307 44.8202 10.46 44.9254 10.2944 45.022C8.95791 45.798 7.6214 46.5741 6.278 47.338C6.04174 47.4725 5.77789 47.557 5.652 47.6122L5.65027 47.6105Z" fill="#E6001E"/>
<path d="M58.6 16.7053C58.4775 16.8622 58.2999 17.2675 57.9912 17.4572C56.5461 18.3418 55.0716 19.18 53.5919 20.006C52.9694 20.3526 52.2968 20.144 51.9795 19.5749C51.6588 18.9989 51.8329 18.3487 52.4676 17.9728C53.9075 17.1209 55.3527 16.2759 56.8168 15.4653C57.6791 14.9876 58.6258 15.5447 58.6 16.7035V16.7053Z" fill="#E6001E"/>
<path d="M16.6993 4.29913C16.8614 4.4233 17.2856 4.60782 17.4839 4.93031C18.3617 6.35477 19.186 7.81026 20.0034 9.26921C20.3759 9.93315 20.1742 10.6126 19.574 10.9316C18.9929 11.2421 18.3531 11.0575 17.9806 10.4229C17.1425 9.00018 16.313 7.57228 15.5076 6.13058C15.0196 5.25797 15.5145 4.325 16.6993 4.29913Z" fill="#E6001E"/>
<path d="M58.6018 46.1998C58.6207 47.2708 57.7481 47.9019 56.9945 47.4984C55.4062 46.6482 53.8507 45.7342 52.3073 44.803C51.7675 44.477 51.6882 43.7855 52.0175 43.2612C52.3331 42.7611 52.9419 42.5421 53.4765 42.837C55.0165 43.6889 56.5444 44.5615 58.0482 45.4773C58.3396 45.6549 58.4949 46.055 58.6018 46.2016V46.1998Z" fill="#E6001E"/>
<path d="M47.6459 5.5666C47.5821 5.72353 47.5114 5.97359 47.3872 6.19088C46.6025 7.57049 45.8127 8.94839 45.0108 10.3194C44.5831 11.0523 43.9554 11.2679 43.3415 10.9264C42.6965 10.5677 42.5551 9.91067 42.9897 9.14843C43.7967 7.7326 44.6176 6.32366 45.4368 4.913C45.7489 4.37495 46.2318 4.19733 46.8112 4.36288C47.3441 4.51636 47.5959 4.92508 47.6459 5.5666Z" fill="#E6001E"/>
<path d="M9.85464 20.1923C9.69943 20.1337 9.44592 20.0733 9.22691 19.9491C7.83005 19.1541 6.43664 18.3505 5.05012 17.5365C4.33789 17.1175 4.13094 16.4725 4.48275 15.8637C4.82937 15.2653 5.50883 15.1205 6.22106 15.5257C7.63689 16.3311 9.04756 17.1468 10.453 17.9694C10.9704 18.2729 11.2136 18.7334 11.0463 19.33C10.8963 19.8629 10.4962 20.1268 9.85464 20.194V20.1923Z" fill="#E6001E"/>
<path d="M30.2989 3.95936C30.2989 3.16436 30.2851 2.36935 30.3023 1.57435C30.3213 0.767269 30.8145 0.243014 31.4974 0.267157C32.1579 0.291301 32.6356 0.812107 32.6425 1.57435C32.6546 3.20747 32.658 4.84059 32.6425 6.47372C32.6356 7.2394 32.1493 7.72917 31.4647 7.73089C30.7662 7.73089 30.3248 7.27389 30.3041 6.47372C30.2834 5.6356 30.2989 4.79748 30.2989 3.95936Z" fill="#E6001E"/>
<path d="M4.08956 30.2911C4.90698 30.2911 5.72269 30.279 6.54012 30.2963C7.28684 30.3101 7.74211 30.7515 7.74901 31.4293C7.75763 32.1225 7.27304 32.6106 6.51425 32.6175C4.86043 32.6313 3.20488 32.6313 1.54934 32.6175C0.806069 32.6123 0.276646 32.0967 0.283544 31.4362C0.290443 30.7757 0.811247 30.3049 1.57521 30.2928C2.41333 30.2807 3.25144 30.2894 4.08956 30.2911Z" fill="#E6001E"/>
<path d="M58.9691 32.6244C58.1534 32.6244 57.3377 32.6313 56.5237 32.6227C55.7477 32.6141 55.2631 32.1657 55.2596 31.4759C55.2562 30.7861 55.7425 30.3153 56.5065 30.3118C58.1586 30.3032 59.8106 30.3015 61.4627 30.3118C62.2043 30.317 62.7337 30.8326 62.7165 31.4914C62.6992 32.1346 62.1922 32.6123 61.48 32.6227C60.6436 32.6365 59.8072 32.6261 58.9691 32.6261V32.6244Z" fill="#E6001E"/>
<path d="M24.7545 31.6086C24.7493 27.8905 27.7448 24.8882 31.4612 24.8847C35.1655 24.883 38.1954 27.8992 38.1972 31.5948C38.2006 35.2991 35.1879 38.3084 31.4733 38.3118C27.7414 38.3136 24.7597 35.3388 24.7545 31.6086Z" fill="#E6001E"/>
</svg>
