<svg width="53" height="53" viewBox="0 0 53 53" fill="none" xmlns="http://www.w3.org/2000/svg">
<path d="M0.983215 52.0195V49.0314H1.55313C5.27352 49.0314 8.99391 49.0407 12.7143 49.0288C20.2696 49.0048 26.6585 46.2498 31.7783 40.6972C35.3123 36.8649 37.4601 32.3269 38.1672 27.1472C38.3523 25.7863 38.4322 24.4041 38.4495 23.03C38.4894 19.9088 38.4628 16.7849 38.4628 13.6637C38.4628 13.4826 38.4628 13.3015 38.4628 13.0712H33.9501C36.9834 8.99393 39.9448 5.01122 42.9448 0.977905C43.4908 1.69961 43.9981 2.36939 44.5041 3.04183C46.9089 6.23892 49.3137 9.436 51.7198 12.6318C51.8064 12.7463 51.9169 12.8435 52.0168 12.9487V13.0485H47.4482C47.4402 13.1977 47.4309 13.2789 47.4309 13.3601C47.4309 16.9141 47.4841 20.468 47.4042 24.0206C47.3656 25.7197 47.2058 27.4401 46.8703 29.1059C45.5121 35.8436 42.1299 41.4016 36.797 45.7358C32.7863 48.9941 28.2031 51.0021 23.0752 51.7292C22.3575 51.8304 21.6371 51.9249 20.9194 52.0221H0.983215V52.0195Z" fill="#E6001E"/>
<path d="M23.5293 43.4082V10.0924H27.9927V10.6344C27.9927 20.3521 27.9914 30.0699 28.0007 39.7877C28.0007 40.1512 27.9275 40.4122 27.6159 40.6279C26.4028 41.4668 25.2031 42.3243 23.9953 43.1698C23.8662 43.2604 23.7117 43.3163 23.5306 43.4082H23.5293Z" fill="#E6001E"/>
<path d="M16.0592 45.9142V19.0539H20.516V19.5825C20.516 27.8023 20.5133 36.0234 20.5253 44.2431C20.5253 44.6173 20.444 44.813 20.0606 44.9049C18.7436 45.2218 17.4334 45.5654 16.0592 45.9129V45.9142Z" fill="#E6001E"/>
<path d="M13.0099 46.0248H8.60114V28.1378H13.0099V46.0248Z" fill="#E6001E"/>
<path d="M1.02582 37.09H5.53583V46.0088H1.02582V37.09Z" fill="#E6001E"/>
</svg>
