<svg width="69" height="69" viewBox="0 0 69 69" fill="none" xmlns="http://www.w3.org/2000/svg">
<path d="M32.7733 68.2225C31.6673 67.8798 30.4748 67.6961 29.4748 67.1537C28.1728 66.447 26.982 65.5089 25.8177 64.5796C23.4256 62.668 21.09 60.6857 18.7173 58.7494C18.1591 58.2936 17.546 57.905 16.9471 57.4756C15.8252 58.4314 14.774 58.2565 13.6398 57.5498C10.6505 55.6877 7.62772 53.8822 4.61548 52.0554C0.832956 49.7622 -0.214705 45.4832 2.09438 41.7254C2.98127 40.282 3.87169 38.8386 4.77624 37.4058C7.04823 33.7982 11.2247 32.7841 14.8871 34.9607C18.0654 36.8493 21.2261 38.7644 24.4026 40.6548C25.2648 41.1672 25.7948 41.8403 25.7753 42.8897C25.7718 43.054 25.9432 43.2819 26.0969 43.3791C27.1781 44.0575 28.2717 44.7165 29.3724 45.3613C29.6321 45.5133 29.9342 45.6087 30.2292 45.6864C31.1762 45.939 31.3599 46.5062 30.708 47.2623C29.6144 48.5308 28.5102 49.7887 27.4095 51.0519C24.4874 54.4086 26.4714 58.5339 29.6798 59.5409C31.5595 60.131 33.192 59.6204 34.6336 58.3625C35.2484 57.8272 35.8332 57.2566 36.4374 56.7107C37.0275 56.1789 37.3826 56.1754 37.8967 56.7531C39.8913 58.9897 41.8701 61.2405 43.8594 63.4825C44.1756 63.8376 44.3046 64.2474 43.9671 64.6096C42.6015 66.0813 41.2305 67.56 39.1423 68.0158C38.9108 68.0671 38.6882 68.1501 38.4603 68.2172H32.7733V68.2225ZM13.1858 55.3344C13.2776 55.4192 13.3059 55.4545 13.343 55.4775C13.7918 55.7531 14.2405 56.0305 14.6945 56.3008C15.3924 56.716 15.5814 56.67 16.0213 55.9669C17.4789 53.6384 18.9329 51.3081 20.3869 48.9778C21.5741 47.0768 22.756 45.1723 23.9539 43.2748C24.2153 42.8597 24.2736 42.4887 23.8196 42.1989C23.2118 41.812 22.5864 41.4569 21.9151 41.0559C18.9912 45.8383 16.0955 50.5766 13.1858 55.3344Z" fill="#E6001E"/>
<path d="M51.6841 9.70916C51.5198 15.5322 50.4015 20.9914 47.2833 25.901C44.5307 30.233 40.7288 33.4043 36.2431 35.7981C35.0806 36.4183 33.8457 36.3971 32.6902 35.7716C26.7983 32.5863 22.2084 28.1642 19.6201 21.8676C18.3463 18.7671 17.6732 15.5287 17.4453 12.1932C17.3658 11.0289 17.3216 9.8611 17.3128 8.69507C17.3022 7.43541 18.2668 6.39128 19.5318 6.35418C23.7048 6.22875 27.4184 4.72704 30.9394 2.62819C31.6391 2.21125 32.3175 1.76074 32.9888 1.29963C33.9976 0.607083 34.987 0.600015 35.9922 1.29786C38.4621 3.01157 41.0803 4.44084 43.9477 5.37543C45.6685 5.93548 47.4317 6.29235 49.2496 6.34005C50.7036 6.37891 51.677 7.37711 51.6841 8.81874C51.6841 9.14912 51.6841 9.47949 51.6841 9.70916ZM32.9199 18.9084C32.1249 18.0957 31.3758 17.2901 30.5826 16.5304C29.5773 15.5676 28.0738 15.5888 27.1445 16.5393C26.2223 17.4791 26.2047 18.9402 27.1622 19.9278C28.4784 21.2882 29.8211 22.6238 31.1762 23.9453C32.1549 24.8993 33.5153 24.97 34.5117 24.0442C37.3314 21.4207 40.1263 18.7688 42.9 16.0958C43.8558 15.1736 43.8205 13.7072 42.9301 12.7603C42.0467 11.8221 40.6139 11.7462 39.5945 12.6066C39.1582 12.9758 38.7571 13.3857 38.3419 13.7797C36.554 15.4704 34.7679 17.1611 32.9217 18.9084H32.9199Z" fill="#E6001E"/>
<path d="M51.9226 57.3643C50.9297 58.1311 49.905 58.8449 48.9704 59.6628C48.0605 60.4596 47.2496 61.3677 46.3875 62.2193C45.7426 62.857 45.3999 62.8517 44.7974 62.1733C42.5873 59.6876 40.3824 57.1965 38.1794 54.7055C37.478 53.9122 37.1882 53.8963 36.3967 54.6277C35.4569 55.4934 34.5311 56.3768 33.5665 57.2124C31.9994 58.5692 30.0207 58.5198 28.6391 57.1311C27.2664 55.7496 27.2046 53.732 28.519 52.1791C29.6709 50.8169 30.8387 49.4672 32.0312 48.1404C33.4587 46.5521 35.2554 45.6528 37.4002 45.7659C38.9002 45.8454 40.2128 45.5486 41.4036 44.6476C41.6827 44.4373 41.9937 44.2589 42.3117 44.1105C42.9636 43.8084 43.3858 43.4692 43.2586 42.5982C43.1509 41.8633 43.6314 41.2484 44.2727 40.8633C47.7037 38.798 51.1046 36.6797 54.5903 34.7116C57.8411 32.876 61.8409 33.8919 63.9203 36.9889C65.0598 38.6867 66.141 40.4287 67.1534 42.206C69.0296 45.4974 68.1251 49.5944 64.9538 51.6543C61.6342 53.8115 58.2121 55.8079 54.8165 57.8484C53.8236 58.4438 52.8695 58.2088 51.9208 57.3661L51.9226 57.3643ZM47.073 41.0576C46.4864 41.4074 45.9582 41.7166 45.4352 42.0329C44.6967 42.4816 44.6508 42.6618 45.1084 43.395C46.5023 45.6334 47.9033 47.8701 49.3008 50.1067C50.5357 52.0837 51.7706 54.0588 53.002 56.0358C53.2246 56.3944 53.4826 56.723 53.9508 56.4739C54.5832 56.1365 55.1875 55.7478 55.8217 55.3697C52.8925 50.5784 50.0057 45.8542 47.073 41.0559V41.0576Z" fill="#E6001E"/>
</svg>
