<svg width="55" height="53" viewBox="0 0 55 53" fill="none" xmlns="http://www.w3.org/2000/svg">
<g clip-path="url(#clip0_1_67)">
<path d="M52.5308 10.4218C52.5439 10.6775 52.5634 10.8746 52.5634 11.0717C52.5634 17.6743 52.5667 24.2785 52.5634 30.8811C52.5634 32.4186 51.894 33.4006 50.6089 33.741C50.3401 33.8127 50.0486 33.8225 49.7668 33.8241C47.2667 33.8306 44.7681 33.8192 42.268 33.829C37.1635 33.8502 32.9906 37.2296 31.9596 42.2231C31.7853 43.0684 31.7885 43.9576 31.7706 44.8273C31.7413 46.3094 31.7706 47.7931 31.7608 49.2769C31.7494 50.8827 30.7201 52.0293 29.1337 52.0326C22.7929 52.0472 16.4521 52.1059 10.1146 51.9707C5.56057 51.873 1.44957 48.0879 0.701973 43.5977C0.5733 42.8208 0.563528 42.0228 0.511407 41.2345C0.493491 40.9544 0.50815 40.6726 0.50815 40.3111H1.21992C4.36995 40.3111 7.51997 40.3143 10.67 40.3111C15.4227 40.3062 19.0223 37.329 19.9067 32.6791C20.8302 27.8225 17.0857 22.7085 12.1701 22.2589C10.1537 22.0733 8.11284 22.1498 6.08178 22.1287C4.25593 22.1107 2.43009 22.1254 0.542354 22.1254C0.441371 20.4576 0.552126 18.8632 1.11405 17.3143C2.62717 13.1498 6.49711 10.4267 10.9273 10.4251C24.5845 10.4218 38.2417 10.4251 51.8972 10.4251H52.5308V10.4218Z" fill="#E6001E"/>
<path d="M16.874 6.47395C18.4539 3.04886 20.985 0.9202 24.635 0.195444C25.3663 0.0504929 26.1286 0.0130336 26.8762 0.0114049C31.8537 -0.00325305 36.8328 -0.00325305 41.8103 0.00489028C46.1086 0.0130336 49.3124 1.89903 51.407 5.65636C51.5438 5.90066 51.6432 6.1645 51.7865 6.47395H16.874Z" fill="#E6001E"/>
<path d="M0.542358 36.4071V26.0293H1.16292C4.39438 26.0293 7.62585 26.0244 10.8573 26.0293C13.6686 26.0342 15.825 28.0032 16.1296 30.829C16.3967 33.3176 14.5921 35.7345 12.0105 36.3176C11.6179 36.4055 11.2042 36.4332 10.8003 36.4348C7.50858 36.4446 4.21522 36.4397 0.923489 36.4381C0.822506 36.4381 0.721522 36.4218 0.542358 36.4055V36.4071Z" fill="#E6001E"/>
<path d="M42.8087 53C42.0465 53.013 41.1099 52.6678 40.2874 52.0179C38.7743 50.8209 37.2644 49.6189 35.7676 48.4023C34.8604 47.6645 34.7154 46.5033 35.3897 45.6433C36.0771 44.7655 37.2921 44.6238 38.2091 45.3437C39.6457 46.4723 41.066 47.6238 42.4944 48.7639C43.084 49.2345 43.3169 49.2117 43.8202 48.6368C46.1868 45.93 48.5518 43.2231 50.92 40.5163C51.6578 39.6743 52.552 39.4479 53.4185 39.8795C54.6075 40.4707 54.8665 41.9495 53.9381 43.0261C52.451 44.7492 50.9444 46.4528 49.446 48.1645C48.4817 49.2639 47.524 50.3697 46.55 51.4609C45.6346 52.4854 44.4847 53.0049 42.8087 53.0016V53Z" fill="#E6001E"/>
</g>
<defs>
<clipPath id="clip0_1_67">
<rect width="54" height="53" fill="white" transform="translate(0.5)"/>
</clipPath>
</defs>
</svg>
