<?xml version="1.0" encoding="UTF-8"?>
<svg version="1.1" xmlns="http://www.w3.org/2000/svg" width="146" height="172">
<path d="M0 0 C0.87398438 0.67675781 1.74796875 1.35351562 2.6484375 2.05078125 C2.6484375 3.04078125 2.6484375 4.03078125 2.6484375 5.05078125 C1.4315625 4.96828125 0.2146875 4.88578125 -1.0390625 4.80078125 C-17.23238951 4.87692542 -30.79207485 14.53947142 -41.84228516 25.47216797 C-44.79524178 28.5607829 -47.57257997 31.8060019 -50.3515625 35.05078125 C-49.57256592 35.06536377 -48.79356934 35.07994629 -47.9909668 35.0949707 C-21.53929712 35.64625007 3.18859854 38.10822171 27.6484375 49.05078125 C27.6484375 49.71078125 27.6484375 50.37078125 27.6484375 51.05078125 C17.88229097 54.88432519 8.15299371 58.39314563 -2.0390625 60.92578125 C-3.25674316 61.22971802 -3.25674316 61.22971802 -4.49902344 61.53979492 C-14.74509056 63.99127546 -24.87270721 64.32200379 -35.3515625 64.61328125 C-36.80860407 64.6565549 -38.26563549 64.70017175 -39.72265625 64.74414062 C-43.26551662 64.85031427 -46.80849213 64.95183236 -50.3515625 65.05078125 C-35.04160557 82.11960977 -20.21575848 94.73507463 3.6484375 96.05078125 C3.6484375 96.71078125 3.6484375 97.37078125 3.6484375 98.05078125 C1.46887794 99.6045569 -0.6810877 100.99893415 -2.9765625 102.36328125 C-3.64792236 102.76482422 -4.31928223 103.16636719 -5.01098633 103.58007812 C-11.50549818 107.34289814 -18.15296808 109.89793058 -25.3515625 112.05078125 C-25.97546875 112.25058594 -26.599375 112.45039063 -27.2421875 112.65625 C-39.6662309 114.98000626 -51.27351372 112.96533368 -61.9765625 106.36328125 C-75.4117542 96.66407869 -83.19198466 83.2925781 -86.3515625 67.05078125 C-86.53203125 66.18453125 -86.7125 65.31828125 -86.8984375 64.42578125 C-89.68138336 43.69763279 -87.02804916 22.22208909 -74.1796875 5.16796875 C-52.92945375 -19.37971506 -25.45697321 -15.96329239 0 0 Z " fill="#171717" transform="translate(87.3515625,35.94921875)"/>
<path d="M0 0 C4.1123483 0.53431904 6.12656137 2.69810275 9.0625 5.5 C15.36887169 11.39270073 21.93315043 16.92451542 28.8203125 22.1328125 C29.89925781 23.05707031 29.89925781 23.05707031 31 24 C31 24.66 31 25.32 31 26 C28.99429342 27.6673579 27.0020012 29.18776307 24.875 30.6875 C24.24335938 31.13303223 23.61171875 31.57856445 22.9609375 32.03759766 C3.26117029 45.6153886 -19.87003851 51.08297229 -43.58984375 47.38671875 C-53.93004149 45.38938141 -62.82446172 41.02858682 -72 36 C-73.32949475 35.3257108 -74.66064936 34.65449376 -76 34 C-76 33.34 -76 32.68 -76 32 C-74.783125 32.165 -73.56625 32.33 -72.3125 32.5 C-49.05969566 34.97061046 -30.40600896 28.26945624 -12.390625 13.921875 C-7.51438057 9.76561297 -3.59430734 5.29984141 0 0 Z " fill="#E6001D" transform="translate(115,124)"/>
<path d="M0 0 C1.06089844 0.36222656 2.12179688 0.72445313 3.21484375 1.09765625 C13.20228567 4.88954218 22.03965354 10.92413648 30 18 C25.51602887 24.03016807 19.85582512 28.3488889 14 33 C11.95272337 34.63910085 9.91306521 36.28687948 7.875 37.9375 C6.96492188 38.66839844 6.05484375 39.39929687 5.1171875 40.15234375 C2.92865845 41.82614739 2.92865845 41.82614739 2 44 C1.01 44 0.02 44 -1 44 C-2.21875 42.6015625 -2.21875 42.6015625 -3.5 40.625 C-14.19257928 25.70819186 -31.55917375 15.27141297 -49.390625 11.49609375 C-58.55904954 10.2359315 -67.87745911 10.52324403 -77 12 C-60.44144137 -8.10682119 -22.42642651 -7.78163832 0 0 Z " fill="#E6001D" transform="translate(116,4)"/>
</svg>
